<svg height="50" viewBox="0 0 64 64" width="50" xmlns="http://www.w3.org/2000/svg"><g id="Hospital"><ellipse cx="32" cy="56" fill="#ffcd00" rx="18" ry="5"/><path d="m53 24c0 7.8-9.5 20.03-15.72 27.21-3.03 3.49-5.28 5.79-5.28 5.79s-2.25-2.3-5.28-5.79c-6.22-7.18-15.72-19.41-15.72-27.21a21 21 0 0 1 42 0z" fill="#006df0"/><circle cx="32" cy="24" fill="#d1e7f8" r="16"/><path d="m48 24a15.98 15.98 0 0 1 -26.735 11.839q-2.214 1.242-4.533 2.309a122.307 122.307 0 0 0 9.988 13.062c3.03 3.49 5.28 5.79 5.28 5.79s2.25-2.3 5.28-5.79c6.22-7.18 15.72-19.41 15.72-27.21a20.928 20.928 0 0 0 -6.073-14.765q-1.206 2.343-2.592 4.575a15.932 15.932 0 0 1 3.665 10.19z" fill="#005ece"/><path d="m48 24a15.932 15.932 0 0 0 -3.665-10.19 64.29 64.29 0 0 1 -23.07 22.029 15.98 15.98 0 0 0 26.735-11.839z" fill="#b7cad9"/><path d="m42 21v6h-7v7h-6v-7h-7v-6h7v-7h6v7z" fill="#ed1c24"/><g fill="#231f20"><path d="m49 24a17 17 0 1 0 -17 17 17.019 17.019 0 0 0 17-17zm-32 0a15 15 0 1 1 15 15 15.017 15.017 0 0 1 -15-15z"/><path d="m39.29 50.418c6.26-7.391 14.71-18.78 14.71-26.418a22 22 0 0 0 -44 0c0 7.638 8.45 19.027 14.71 26.418-4.236.526-11.71 1.967-11.71 5.582 0 3.939 9.559 6 19 6s19-2.061 19-6c0-3.615-7.474-5.056-11.71-5.582zm-7.29-46.418a20.023 20.023 0 0 1 20 20c0 9.874-16.354 27.7-20 31.555-3.647-3.855-20-21.677-20-31.555a20.023 20.023 0 0 1 20-20zm0 56c-11 0-17-2.643-17-4 0-.945 3.33-2.977 11.293-3.742 2.7 3.094 4.732 5.176 4.993 5.442a1 1 0 0 0 1.428 0c.261-.266 2.29-2.348 4.993-5.442 7.963.765 11.293 2.797 11.293 3.742 0 1.357-6 4-17 4z"/><path d="m36 34v-6h6a1 1 0 0 0 1-1v-6a1 1 0 0 0 -1-1h-6v-6a1 1 0 0 0 -1-1h-6a1 1 0 0 0 -1 1v6h-6a1 1 0 0 0 -1 1v6a1 1 0 0 0 1 1h6v6a1 1 0 0 0 1 1h6a1 1 0 0 0 1-1zm-2-7v6h-4v-6a1 1 0 0 0 -1-1h-6v-4h6a1 1 0 0 0 1-1v-6h4v6a1 1 0 0 0 1 1h6v4h-6a1 1 0 0 0 -1 1z"/></g></g></svg>